<svg xmlns="http://www.w3.org/2000/svg" xmlns:xlink="http://www.w3.org/1999/xlink" width="26" height="26" viewBox="0 0 26 26">
  <defs>
    <style>
      .cls-1 {
        fill: #ffffff;
        fill-rule: evenodd;
      }
    </style>
  </defs>
  <path id="Forma_1_copy_2" data-name="Forma 1 copy 2" class="cls-1" d="M1448.76,395.222a4.239,4.239,0,0,0-5.99,0L1425.8,412.2c-0.01.008-.01,0.017-0.02,0.026l-0.03.036c-0.02.035-.04,0.072-0.06,0.113,0,0.012-.01.022-0.01,0.035a0.013,0.013,0,0,1-.01.014l-1.66,6.992a0.314,0.314,0,0,0-.01.1v0.018a0.42,0.42,0,0,0,.03.156c0,0.012.01,0.022,0.01,0.033a0.71,0.71,0,0,0,.1.14,0.4,0.4,0,0,0,.15.1,0.521,0.521,0,0,0,.18.034,0.592,0.592,0,0,0,.11-0.012l6.99-1.664c0.01,0,.02-0.011.03-0.015a0.5,0.5,0,0,0,.05-0.018,0.65,0.65,0,0,0,.09-0.058,0.453,0.453,0,0,0,.04-0.026,0.081,0.081,0,0,0,.01-0.009l16.97-16.981A4.248,4.248,0,0,0,1448.76,395.222Zm-0.66.666a3.294,3.294,0,0,1,.3,4.3l-4.6-4.609A3.3,3.3,0,0,1,1448.1,395.888Zm-2.33,6.992-4.66-4.662,0.66-.665,4.66,4.662Zm-19.44,14.783a0.464,0.464,0,0,0-.66,0l-0.36.356,1.2-5.052,2.08-.231-0.26,2.412v0.1c0,0.016.01,0.028,0.01,0.043s0.01,0.052.02,0.078,0.03,0.058.05,0.085a0.213,0.213,0,0,0,.05.06,0.283,0.283,0,0,0,.07.062,0.7,0.7,0,0,0,.06.04c0.04,0.014.07,0.024,0.1,0.032a0.317,0.317,0,0,0,.05.015,0.374,0.374,0,0,0,.05,0h0.01a0.374,0.374,0,0,0,.05,0l2.41-.267-0.23,2.082-5.05,1.2,0.35-.357A0.459,0.459,0,0,0,1426.33,417.663Zm5.91-2.58,10.53-10.538a0.468,0.468,0,1,0-.66-0.665l-10.54,10.536-2.24.251,0.25-2.248,10.53-10.537a0.472,0.472,0,1,0-.67-0.666l-10.53,10.537-1.5.167,13.03-13.035,4.66,4.662-13.03,13.034Zm14.86-13.534-4.66-4.662,0.66-.666,4.66,4.662Z" transform="translate(-1424 -394)"/>
</svg>
