<svg xmlns="http://www.w3.org/2000/svg" width="26" height="26" viewBox="0 0 26 26">
  <defs>
    <style>
      .cls-1 {
        fill: #fff;
        fill-rule: evenodd;
      }
    </style>
  </defs>
  <path id="Forma_1" data-name="Forma 1" class="cls-1" d="M62.461,547.234H60.04v-0.711a1.523,1.523,0,1,0-3.047,0v0.711H48.462v-0.711a1.523,1.523,0,1,0-3.047,0v0.73a0.5,0.5,0,0,0-.135-0.019H43.257a2.542,2.542,0,0,0-2.539,2.539v8.65a0.508,0.508,0,1,0,1.016,0v-5.959H60.04a0.508,0.508,0,1,0,0-1.015H41.733v-1.676a1.526,1.526,0,0,1,1.523-1.524H45.28a0.547,0.547,0,0,0,.135-0.018v0.653a1.523,1.523,0,0,0,3.047,0v-0.635h8.531v0.635a1.523,1.523,0,0,0,3.047,0v-0.635h2.421a1.526,1.526,0,0,1,1.523,1.524v19.3a0.914,0.914,0,1,1-1.829,0v-1.313a0.508,0.508,0,0,0-.508-0.508H55.741a0.508,0.508,0,1,0,0,1.015h5.4v0.806a1.921,1.921,0,0,0,.231.915H40.93a0.915,0.915,0,0,1-.914-0.915v-0.806H51.382a0.508,0.508,0,1,0,0-1.015H46.308a4.164,4.164,0,1,0-5.426,0H39.508a0.508,0.508,0,0,0-.508.508v1.313A1.931,1.931,0,0,0,40.93,571H63.07a1.932,1.932,0,0,0,1.93-1.93v-19.3A2.542,2.542,0,0,0,62.461,547.234Zm-15.014,1.65a0.508,0.508,0,1,1-1.016,0v-2.361a0.508,0.508,0,1,1,1.016,0v2.361Zm11.578,0a0.508,0.508,0,1,1-1.016,0v-2.361a0.508,0.508,0,1,1,1.016,0v2.361ZM40.446,564.093a3.148,3.148,0,1,1,3.148,3.148A3.152,3.152,0,0,1,40.446,564.093Zm22.335-12.5a0.509,0.509,0,1,0,.149.359A0.513,0.513,0,0,0,62.781,551.6Zm-8.616,15.8a0.508,0.508,0,1,0,.149.359A0.513,0.513,0,0,0,54.166,567.4Zm-3.677-6.959a1.93,1.93,0,1,0,1.93,1.929A1.932,1.932,0,0,0,50.489,560.437Zm0,2.844a0.914,0.914,0,1,1,.914-0.915A0.915,0.915,0,0,1,50.489,563.281Zm4.74-2.844a1.93,1.93,0,1,0,1.93,1.929A1.932,1.932,0,0,0,55.229,560.437Zm0,2.844a0.914,0.914,0,1,1,.914-0.915A0.915,0.915,0,0,1,55.229,563.281Zm4.74-2.844a1.93,1.93,0,1,0,1.93,1.929A1.932,1.932,0,0,0,59.968,560.437Zm0,2.844a0.914,0.914,0,1,1,.914-0.915A0.915,0.915,0,0,1,59.968,563.281Zm-14.219-8.126a1.93,1.93,0,1,0,1.93,1.93A1.932,1.932,0,0,0,45.749,555.155Zm0,2.844a0.914,0.914,0,1,1,.914-0.914A0.915,0.915,0,0,1,45.749,558Zm9.479-2.844a1.93,1.93,0,1,0,1.93,1.93A1.932,1.932,0,0,0,55.229,555.155Zm0,2.844a0.914,0.914,0,1,1,.914-0.914A0.915,0.915,0,0,1,55.229,558Zm4.74-2.844a1.93,1.93,0,1,0,1.93,1.93A1.932,1.932,0,0,0,59.968,555.155Zm0,2.844a0.914,0.914,0,1,1,.914-0.914A0.915,0.915,0,0,1,59.968,558Zm-9.479-2.844a1.93,1.93,0,1,0,1.93,1.93A1.932,1.932,0,0,0,50.489,555.155Zm0,2.844a0.914,0.914,0,1,1,.914-0.914A0.915,0.915,0,0,1,50.489,558ZM45.4,562.856a0.507,0.507,0,0,0-.718,0l-1.654,1.653-0.565-.565a0.508,0.508,0,0,0-.718.718l0.924,0.925a0.51,0.51,0,0,0,.718,0l2.013-2.013A0.507,0.507,0,0,0,45.4,562.856Z" transform="translate(-39 -545)"/>
</svg>
