<svg xmlns="http://www.w3.org/2000/svg" width="26" height="26" viewBox="0 0 26 26">
  <defs>
    <style>
      .cls-1 {
        fill: #fff;
        fill-rule: evenodd;
      }
    </style>
  </defs>
  <path id="Forma_1" data-name="Forma 1" class="cls-1" d="M51.251,1438.27a0.43,0.43,0,0,0-.614.09l-0.054.07a0.445,0.445,0,0,0,.093.62,0.431,0.431,0,0,0,.614-0.09l0.055-.08A0.435,0.435,0,0,0,51.251,1438.27Zm0.115,4.19-1.131-2.06,1.056-1.44a0.442,0.442,0,0,0-.709-0.53l-1.222,1.68a0.435,0.435,0,0,0-.031.47l1.266,2.31h0a0.433,0.433,0,0,0,.386.23,0.412,0.412,0,0,0,.211-0.06A0.439,0.439,0,0,0,51.365,1442.46Zm3.277-2.35-1.217-1.67a0.439,0.439,0,0,0-.781.16,0.426,0.426,0,0,0,.072.36l1.05,1.44-1.123,2.05a0.461,0.461,0,0,0-.054.21,0.437,0.437,0,0,0,.33.43,0.421,0.421,0,0,0,.109.02,0.448,0.448,0,0,0,.385-0.23l1.258-2.3A0.435,0.435,0,0,0,54.642,1440.11Zm0.7-6.94a0.416,0.416,0,0,0-.454.03,6.514,6.514,0,0,0-.721.57,3.133,3.133,0,0,1-2.351.92,0.22,0.22,0,0,0-.08-0.01,4.412,4.412,0,0,1-2.2-1.12c-0.136-.1-0.276-0.21-0.416-0.3a0.457,0.457,0,0,0-.452-0.03,0.45,0.45,0,0,0-.233.39v1.52a0.434,0.434,0,0,0,.165.34l0.038,0.03,3.117,2.09h0l0.008,0.01a0.425,0.425,0,0,0,.243.07,0.5,0.5,0,0,0,.208-0.05l0.04-.03h0.01l3.11-2.09a0.07,0.07,0,0,1,.036-0.02,0.465,0.465,0,0,0,.169-0.35v-1.58A0.45,0.45,0,0,0,55.338,1433.17Zm-0.644,1.73L52,1436.71l-2.693-1.81v-0.4a4.8,4.8,0,0,0,2.407,1.07H51.72a4.056,4.056,0,0,0,2.975-1.1v0.43h0Zm-2.26,2.27a0.437,0.437,0,0,0-.332-0.36,0.447,0.447,0,0,0-.456.17l-1.01,1.38a0.446,0.446,0,0,0,.094.62,0.416,0.416,0,0,0,.26.08,0.432,0.432,0,0,0,.355-0.18l1.005-1.37a0.457,0.457,0,0,0,.09-0.27A0.435,0.435,0,0,0,52.434,1437.17Zm6.264-14.23a2.834,2.834,0,0,0-1.614-2.15,1.537,1.537,0,0,0-.129-0.93,1.709,1.709,0,0,0-1.307-.85,0.239,0.239,0,0,0-.084-0.01h-5.9a4.36,4.36,0,0,0-4.345,4.36v2.33a2.68,2.68,0,0,0,.579,1.66,2.165,2.165,0,0,1,.447,1.25,0.44,0.44,0,0,0,.878-0.03v-3.03a1.925,1.925,0,0,1,1.493-1.51h1.908a2.085,2.085,0,0,0,.656-0.11c0.363-.11.939-0.33,1.358-0.49a1.311,1.311,0,0,1,.874-0.01l2.043,0.72a1.879,1.879,0,0,1,1.226,1.42v3.64a0.443,0.443,0,0,0,.407.44h0.033a0.442,0.442,0,0,0,.434-0.38,6.33,6.33,0,0,1,.743-2.06,1.963,1.963,0,0,0,.3-1.04v-3.17A0.35,0.35,0,0,0,58.7,1422.94Zm-0.876,3.22a1.083,1.083,0,0,1-.16.56v-1.19c0-.01,0-0.03,0-0.05a2.76,2.76,0,0,0-1.8-2.17H55.851l-2.046-.72a2.178,2.178,0,0,0-.713-0.12,2.015,2.015,0,0,0-.764.14c-0.587.22-1.041,0.39-1.314,0.47a1.262,1.262,0,0,1-.388.06H48.681c-0.019,0-.038.01-0.056,0.01a2.8,2.8,0,0,0-2.269,2.24,0.567,0.567,0,0,0-.011.1v0.91a1.808,1.808,0,0,1-.146-0.71v-2.33a3.476,3.476,0,0,1,3.466-3.48h5.856a0.926,0.926,0,0,1,.649.38,0.862,0.862,0,0,1-.019.63,0.446,0.446,0,0,0,0,.38,0.425,0.425,0,0,0,.293.23,1.89,1.89,0,0,1,1.377,1.53v3.13h0Zm-0.163-.68a2.76,2.76,0,0,0-1.8-2.17H55.851l-2.046-.72a2.145,2.145,0,0,0-1.478.02c-0.587.22-1.041,0.39-1.314,0.47a1.262,1.262,0,0,1-.388.06H48.681c-0.019,0-.038.01-0.056,0.01a2.8,2.8,0,0,0-2.269,2.24,0.567,0.567,0,0,0-.011.1v3.79a0.073,0.073,0,0,0,0,.01c0,0.14.1,3.25,2.238,4.67l0.011,0.01c0.009,0.01.018,0.01,0.028,0.02a3.951,3.951,0,0,1,.365.27,5.432,5.432,0,0,0,2.728,1.31H51.72c0.05,0,.14.01,0.262,0.01a4.149,4.149,0,0,0,2.771-1.16,6.456,6.456,0,0,1,.63-0.5l0.033-.02a0.057,0.057,0,0,1,.032-0.02c0.715-.48,1.952-1.73,2.212-4.64,0-.01,0-0.03,0-0.04v-3.67C57.662,1425.52,57.661,1425.5,57.66,1425.48Zm-0.877,3.7c-0.24,2.63-1.355,3.65-1.825,3.96a0.177,0.177,0,0,1-.05.04l-0.024.02a6.523,6.523,0,0,0-.721.57,3.076,3.076,0,0,1-2.354.92,0.2,0.2,0,0,0-.077-0.01,4.412,4.412,0,0,1-2.2-1.12c-0.136-.1-0.276-0.21-0.416-0.3l-0.011-.01c-0.011-.01-0.021-0.01-0.033-0.02-1.729-1.15-1.842-3.84-1.846-3.95v-3.74a1.936,1.936,0,0,1,1.492-1.51h1.909a2.085,2.085,0,0,0,.656-0.11c0.363-.11.939-0.33,1.358-0.49a1.311,1.311,0,0,1,.874-0.01l2.043,0.72a1.879,1.879,0,0,1,1.226,1.42v3.62h0Zm-4.389,7.86a0.447,0.447,0,0,0-.356-0.24,0.433,0.433,0,0,0-.392.18l-1.053,1.44a0.447,0.447,0,0,0,.094.62,0.49,0.49,0,0,0,.26.08,0.432,0.432,0,0,0,.354-0.18l1.053-1.43a0.486,0.486,0,0,0,.086-0.27A0.446,0.446,0,0,0,52.394,1437.04Zm0.028,7.11a0.443,0.443,0,0,0-.614-0.02l-0.1.09a0.441,0.441,0,0,0-.087.54l0,0.01a0.442,0.442,0,0,0,.323.22h0.061a0.413,0.413,0,0,0,.311-0.13l0.1-.09A0.446,0.446,0,0,0,52.422,1444.15Zm-0.128.07-0.1-.09a0.441,0.441,0,0,0-.608.64l0.1,0.09a0.414,0.414,0,0,0,.311.13h0.062a0.427,0.427,0,0,0,.323-0.23h0A0.446,0.446,0,0,0,52.294,1444.22Zm0.008,0.01h0a0.4,0.4,0,0,0-.252-0.12,0.442,0.442,0,0,0-.348.12h0a0.427,0.427,0,0,0-.143.31,0.453,0.453,0,0,0,.13.33h0a0.436,0.436,0,0,0,.621,0h0a0.468,0.468,0,0,0,.129-0.33A0.427,0.427,0,0,0,52.3,1444.23Zm-0.158-7.42a0.435,0.435,0,0,0-.493.17,0.448,0.448,0,0,0,.048.57,0.453,0.453,0,0,0,.312.12,0.4,0.4,0,0,0,.254-0.08,0.428,0.428,0,0,0,.187-0.36h0A0.445,0.445,0,0,0,52.143,1436.81Zm0.215,0.16h0a0.438,0.438,0,0,0-.793.26v0.01a0.452,0.452,0,0,0,.233.39,0.5,0.5,0,0,0,.207.05,0.527,0.527,0,0,0,.245-0.07,0.466,0.466,0,0,0,.19-0.3A0.447,0.447,0,0,0,52.358,1436.97Zm4.873-1.38a0.434,0.434,0,0,0-.263-0.26l-1.686-.61c-0.014,0-.028-0.01-0.042-0.01a0.435,0.435,0,0,0-.351.06l-3.123,2.1h0l0.245,0.36-0.251-.36a0.457,0.457,0,0,0-.184.26,0.443,0.443,0,0,0-.007.18,0.411,0.411,0,0,0,.079.19l2.287,3.13a0.449,0.449,0,0,0,.354.18h0.029a0.447,0.447,0,0,0,.356-0.23l2.532-4.62A0.447,0.447,0,0,0,57.231,1435.59Zm-3,3.96-1.607-2.2,2.567-1.72,0.992,0.36Zm-1.8-2.39a0.469,0.469,0,0,0-.188-0.29l-3.134-2.1a0.41,0.41,0,0,0-.34-0.06c-0.018,0-.036.01-0.053,0.01l-1.686.61a0.434,0.434,0,0,0-.263.26,0.447,0.447,0,0,0,.026.37l2.532,4.62a0.447,0.447,0,0,0,.356.23h0.029a0.45,0.45,0,0,0,.354-0.18l1.222-1.67s0-.01,0-0.01l1.062-1.45A0.451,0.451,0,0,0,52.434,1437.16Zm-1.852,1.27c0,0.01,0,.01,0,0.01l-0.811,1.11-1.952-3.56,0.992-.36,2.567,1.72Zm14.4,4.69-0.567-3.44a3.052,3.052,0,0,0-1.958-2.36l-5.486-1.99a0.449,0.449,0,0,0-.478.12,0.444,0.444,0,0,0-.065.49l1.145,2.31-1.124.02a0.432,0.432,0,0,0-.371.21,0.442,0.442,0,0,0-.012.43l0.461,0.89-4.718,4.33s-0.01.01-.014,0.01l-0.1.1a0.438,0.438,0,0,0-.075.52l0,0.01a0.443,0.443,0,0,0,.386.23H63.395A1.612,1.612,0,0,0,64.98,1443.12Zm-1.03.74a0.74,0.74,0,0,1-.555.26H53.123l4.246-3.9a0.445,0.445,0,0,0,.093-0.53l-0.287-.55,1.108-.02a0.431,0.431,0,0,0,.369-0.21,0.45,0.45,0,0,0,.018-0.43l-0.967-1.95,4.453,1.62a2.169,2.169,0,0,1,1.389,1.68l0.567,3.44h0A0.726,0.726,0,0,1,63.95,1443.86Zm-11.644.37H52.3a0.444,0.444,0,0,0-.607.01l0,0.01a0.437,0.437,0,0,0-.094.48A0.445,0.445,0,0,0,52,1445h0.01a0.438,0.438,0,0,0,.41-0.28A0.448,0.448,0,0,0,52.306,1444.23Zm-0.014-.01a0.438,0.438,0,0,0-.68.11l0,0.01a0.444,0.444,0,0,0,.069.52h0A0.441,0.441,0,0,0,52,1445a0.429,0.429,0,0,0,.3-0.12h0a0.476,0.476,0,0,0,.1-0.13A0.448,0.448,0,0,0,52.292,1444.22Zm0.019,0.03,0-.01h0l-0.1-.1s-0.009-.01-0.014-0.01l-4.718-4.33,0.461-.89a0.443,0.443,0,0,0-.012-0.43,0.432,0.432,0,0,0-.371-0.21l-1.124-.02,1.145-2.31a0.443,0.443,0,0,0-.065-0.49,0.449,0.449,0,0,0-.478-0.12l-5.486,1.99a3.052,3.052,0,0,0-1.957,2.36l-0.567,3.44a1.612,1.612,0,0,0,1.585,1.88H52a0.445,0.445,0,0,0,.406-0.27A0.437,0.437,0,0,0,52.311,1444.25Zm-11.7-.13a0.74,0.74,0,0,1-.555-0.26,0.726,0.726,0,0,1-.163-0.59l0.567-3.44a2.169,2.169,0,0,1,1.389-1.68l4.453-1.62-0.967,1.95a0.449,0.449,0,0,0,.018.43,0.431,0.431,0,0,0,.369.21l1.108,0.02-0.287.55a0.445,0.445,0,0,0,.093.53l4.246,3.9H40.607Zm12.89-5.31a0.448,0.448,0,0,0-.072-0.37l-1.07-1.46a0.43,0.43,0,0,0-.491-0.16,0.442,0.442,0,0,0-.231.18l-1.05,1.43a0.671,0.671,0,0,0-.04.07,0.444,0.444,0,0,0,.032.45l0.447,0.64-0.476,3.02a0.439,0.439,0,0,0,.049.28l1.021,1.86a0.438,0.438,0,0,0,.77,0l1.028-1.87a0.469,0.469,0,0,0,.054-0.22h0a0.579,0.579,0,0,0-.005-0.07l-0.474-3,0.442-.63A0.56,0.56,0,0,0,53.5,1438.81Zm-1.5,4.81-0.563-1.02,0.481-3.04a0.464,0.464,0,0,0-.073-0.33l-0.368-.53,0.525-.71,0.528,0.72-0.364.52a0.464,0.464,0,0,0-.074.33l0.479,3.02Z" transform="translate(-39 -1419)"/>
</svg>
