<svg xmlns="http://www.w3.org/2000/svg" width="26" height="26" viewBox="0 0 26 26">
  <defs>
    <style>
      .cls-1 {
        fill: #fff;
        fill-rule: evenodd;
      }
    </style>
  </defs>
  <path class="cls-1" d="M64.386,510.6H39.614a0.705,0.705,0,0,0,0,1.4H64.386A0.705,0.705,0,0,0,64.386,510.6Zm-1.6-21.3H58.471a0.661,0.661,0,0,0-.614.7v4.756H54.771V486.7a0.661,0.661,0,0,0-.614-0.7H49.843a0.661,0.661,0,0,0-.614.7v13.236H46.143v-5.946a0.662,0.662,0,0,0-.614-0.7H41.215a0.662,0.662,0,0,0-.614.7V507.38a0.661,0.661,0,0,0,.614.7H62.784a0.661,0.661,0,0,0,.614-0.7V490A0.661,0.661,0,0,0,62.784,489.3ZM44.915,506.681H41.83V494.689h3.085v11.992Zm4.314,0H46.144v-5.347h3.085v5.347Zm4.314-11.224v11.224H50.457V487.4h3.085v8.059Zm4.314,11.224H54.771V496.156h3.085v10.525Zm4.314,0H59.085V490.7H62.17v15.98h0Z" transform="translate(-39 -486)"/>
</svg>
