<svg xmlns="http://www.w3.org/2000/svg" width="26" height="26" viewBox="0 0 26 26">
  <defs>
    <style>
      .cls-1 {
        fill: #e1e1e1;
        fill-rule: evenodd;
      }
    </style>
  </defs>
  <path class="cls-1" d="M64.31,675.922l-8.233-8.233a2.365,2.365,0,0,0-3.338,0l-13.05,13.051a2.366,2.366,0,0,0,0,3.338l1.015,1.015h0l6.823,6.823H46.583a0.542,0.542,0,1,0,0,1.083H57.416a0.542,0.542,0,1,0,0-1.083H51.654L64.31,679.26A2.363,2.363,0,0,0,64.31,675.922Zm-0.766,2.572-13.05,13.05a1.267,1.267,0,0,1-.9.372h0a1.266,1.266,0,0,1-.9-0.372l-6.834-6.835,12.532-12.533a0.542,0.542,0,1,0-.766-0.766L41.088,683.943l-0.633-.632a1.282,1.282,0,0,1,0-1.806L53.5,668.454a1.284,1.284,0,0,1,1.806,0l2.93,2.931L45.708,683.918a0.542,0.542,0,1,0,.766.766l12.533-12.533,4.537,4.537A1.279,1.279,0,0,1,63.544,678.494Zm-11.2,4.15a0.541,0.541,0,0,0-.766,0l-4.262,4.262a0.542,0.542,0,1,0,.766.766l4.262-4.263A0.54,0.54,0,0,0,52.345,682.644ZM50.6,686.69l-1.748,1.748a0.542,0.542,0,1,0,.766.766l1.748-1.748A0.542,0.542,0,0,0,50.6,686.69Zm1.609-1.609-0.23.23a0.542,0.542,0,0,0,.766.766l0.23-.23A0.542,0.542,0,1,0,52.206,685.081Zm7.466-9.764a0.541,0.541,0,0,0-.766,0l-2.3,2.3a0.542,0.542,0,0,0,0,.766l1.532,1.532a0.543,0.543,0,0,0,.766,0l2.3-2.3a0.542,0.542,0,0,0,0-.766Zm-1.149,3.447L57.756,678l1.532-1.532,0.766,0.766Zm-3.255-7.693a0.539,0.539,0,0,0,.383-0.159l0.23-.23a0.541,0.541,0,1,0-.766-0.765l-0.23.229A0.542,0.542,0,0,0,55.267,671.071ZM44.445,685.182l-0.23.23a0.542,0.542,0,1,0,.766.766l0.23-.23A0.542,0.542,0,0,0,44.445,685.182Z" transform="translate(-39 -667)"/>
</svg>
