<svg xmlns="http://www.w3.org/2000/svg" width="26" height="26" viewBox="0 0 26 26">
  <defs>
    <style>
      .cls-1 {
        fill: #33f;
        fill-rule: evenodd;
      }
    </style>
  </defs>
  <path class="cls-1" d="M52.345,1497.11a0.414,0.414,0,0,0-.547-0.2,6.413,6.413,0,0,1-1.038.39,0.4,0.4,0,0,0-.292.32l-0.434,2.17a0.466,0.466,0,0,1-.451.37H48.4a0.466,0.466,0,0,1-.451-0.37l-0.434-2.17a0.4,0.4,0,0,0-.292-0.32,6.3,6.3,0,0,1-1.442-.6,0.415,0.415,0,0,0-.429.02l-1.843,1.23a0.47,0.47,0,0,1-.581-0.06l-0.838-.84a0.46,0.46,0,0,1-.058-0.58l1.228-1.84a0.413,0.413,0,0,0,.016-0.43,6.471,6.471,0,0,1-.6-1.44,0.406,0.406,0,0,0-.315-0.29l-2.171-.44a0.457,0.457,0,0,1-.37-0.45v-1.18a0.476,0.476,0,0,1,.37-0.46l2.171-.43a0.406,0.406,0,0,0,.315-0.29,6.481,6.481,0,0,1,.6-1.44,0.412,0.412,0,0,0-.016-0.43l-1.228-1.84a0.474,0.474,0,0,1,.058-0.59l0.838-.83a0.457,0.457,0,0,1,.581-0.06l1.843,1.23a0.414,0.414,0,0,0,.429.01,6.751,6.751,0,0,1,1.442-.59,0.432,0.432,0,0,0,.292-0.32l0.434-2.17a0.466,0.466,0,0,1,.451-0.37h1.185a0.466,0.466,0,0,1,.451.37l0.434,2.17a0.433,0.433,0,0,0,.292.32,6.751,6.751,0,0,1,1.442.59,0.414,0.414,0,0,0,.429-0.01l1.843-1.23a0.457,0.457,0,0,1,.581.06l0.838,0.83a0.474,0.474,0,0,1,.057.59l-1.228,1.84a0.411,0.411,0,0,0-.016.43,6.48,6.48,0,0,1,.6,1.44,0.406,0.406,0,0,0,.315.29l2.171,0.43a0.476,0.476,0,0,1,.37.46v1.18a0.457,0.457,0,0,1-.37.45l-2.171.44a0.406,0.406,0,0,0-.315.29,6.645,6.645,0,0,1-.4,1.06,0.412,0.412,0,0,0,.74.36,7.388,7.388,0,0,0,.378-0.96l1.929-.38a1.288,1.288,0,0,0,1.03-1.26v-1.18a1.288,1.288,0,0,0-1.03-1.26l-1.929-.39a7.593,7.593,0,0,0-.479-1.15l1.091-1.64a1.289,1.289,0,0,0-.16-1.62l-0.838-.83a1.282,1.282,0,0,0-1.617-.16l-1.637,1.09a6.961,6.961,0,0,0-1.156-.48l-0.386-1.93a1.281,1.281,0,0,0-1.256-1.03H48.4a1.282,1.282,0,0,0-1.257,1.03l-0.386,1.93a6.961,6.961,0,0,0-1.156.48l-1.637-1.09a1.282,1.282,0,0,0-1.617.16l-0.838.83a1.289,1.289,0,0,0-.16,1.62l1.091,1.64a7.6,7.6,0,0,0-.479,1.15l-1.929.39A1.288,1.288,0,0,0,39,1490.4v1.18a1.288,1.288,0,0,0,1.03,1.26l1.929,0.38a7.288,7.288,0,0,0,.479,1.16l-1.091,1.64a1.276,1.276,0,0,0,.16,1.61l0.838,0.84a1.282,1.282,0,0,0,1.617.16l1.637-1.09a7.928,7.928,0,0,0,1.156.48l0.386,1.93a1.292,1.292,0,0,0,1.256,1.03h1.185a1.292,1.292,0,0,0,1.256-1.03l0.386-1.93a6.268,6.268,0,0,0,.926-0.37A0.4,0.4,0,0,0,52.345,1497.11Zm0.2-3.84a0.4,0.4,0,0,0,.553-0.18,4.616,4.616,0,0,0-7.329-5.41,0.41,0.41,0,0,0-.008.58,0.4,0.4,0,0,0,.581.01,3.8,3.8,0,0,1,6.026,4.45A0.407,0.407,0,0,0,52.545,1493.27Zm-7.4-4.04a0.412,0.412,0,0,0-.522.26,4.558,4.558,0,0,0-.25,1.5,4.62,4.62,0,0,0,7.319,3.74,0.413,0.413,0,1,0-.481-0.67,3.793,3.793,0,0,1-6.016-3.07,3.849,3.849,0,0,1,.205-1.24A0.413,0.413,0,0,0,45.147,1489.23Zm19.063,9.71-1.187-.24a4.959,4.959,0,0,0-.26-0.62l0.672-1.01a0.985,0.985,0,0,0-.123-1.24l-0.55-.55a1,1,0,0,0-1.24-.13l-1.007.68a4.776,4.776,0,0,0-.628-0.26l-0.237-1.19a0.983,0.983,0,0,0-.964-0.79H57.905a0.983,0.983,0,0,0-.964.79l-0.237,1.19a4.776,4.776,0,0,0-.628.26l-1.007-.68a1,1,0,0,0-1.24.13l-0.55.55a0.985,0.985,0,0,0-.123,1.24l0.672,1.01a4.691,4.691,0,0,0-.335.87,0.4,0.4,0,0,0,.285.5,0.407,0.407,0,0,0,.506-0.28,4.2,4.2,0,0,1,.38-0.92,0.412,0.412,0,0,0-.016-0.43l-0.807-1.21a0.157,0.157,0,0,1,.02-0.2l0.55-.55a0.159,0.159,0,0,1,.2-0.02l1.211,0.8a0.393,0.393,0,0,0,.429.02,4.3,4.3,0,0,1,.916-0.38,0.4,0.4,0,0,0,.292-0.31l0.285-1.43a0.158,0.158,0,0,1,.159-0.13h0.779a0.158,0.158,0,0,1,.159.13l0.285,1.43a0.4,0.4,0,0,0,.292.31,4.3,4.3,0,0,1,.916.38,0.414,0.414,0,0,0,.429-0.01l1.211-.81a0.158,0.158,0,0,1,.2.02l0.55,0.55a0.157,0.157,0,0,1,.02.2l-0.807,1.21a0.412,0.412,0,0,0-.016.43,4.193,4.193,0,0,1,.38.92,0.406,0.406,0,0,0,.315.29l1.427,0.29a0.155,0.155,0,0,1,.13.15v0.78a0.157,0.157,0,0,1-.13.16l-1.427.29a0.406,0.406,0,0,0-.315.29,3.926,3.926,0,0,1-.38.91,0.411,0.411,0,0,0,.016.43l0.807,1.22a0.157,0.157,0,0,1-.02.2l-0.55.55a0.172,0.172,0,0,1-.2.02l-1.211-.81a0.414,0.414,0,0,0-.429-0.01,4.3,4.3,0,0,1-.916.38,0.4,0.4,0,0,0-.292.31l-0.285,1.43a0.168,0.168,0,0,1-.159.13H57.905a0.168,0.168,0,0,1-.159-0.13l-0.285-1.43a0.4,0.4,0,0,0-.292-0.31,4.3,4.3,0,0,1-.916-0.38,0.414,0.414,0,0,0-.429.01l-1.211.81a0.172,0.172,0,0,1-.2-0.02l-0.55-.55a0.157,0.157,0,0,1-.02-0.2l0.807-1.22a0.411,0.411,0,0,0,.016-0.43,3.926,3.926,0,0,1-.38-0.91,0.406,0.406,0,0,0-.315-0.29l-1.427-.29a0.157,0.157,0,0,1-.13-0.16v-0.78a0.154,0.154,0,0,1,.13-0.15l0.087-.02a0.413,0.413,0,0,0-.161-0.81l-0.087.02a0.986,0.986,0,0,0-.79.96v0.78a0.988,0.988,0,0,0,.79.97l1.187,0.23a4.54,4.54,0,0,0,.26.63l-0.672,1.01a0.985,0.985,0,0,0,.123,1.24l0.55,0.55a0.984,0.984,0,0,0,1.24.12l1.007-.67a4.782,4.782,0,0,0,.628.26l0.237,1.19a0.983,0.983,0,0,0,.964.79h0.778a0.983,0.983,0,0,0,.964-0.79l0.238-1.19a4.776,4.776,0,0,0,.628-0.26l1.007,0.67a0.984,0.984,0,0,0,1.24-.12l0.55-.55a0.985,0.985,0,0,0,.123-1.24l-0.672-1.01a4.54,4.54,0,0,0,.26-0.63l1.187-.23a0.988,0.988,0,0,0,.79-0.97v-0.78A0.986,0.986,0,0,0,64.21,1498.94Zm-5.915-.12a1.476,1.476,0,0,1,1.478,1.47,0.411,0.411,0,0,0,.821,0,2.3,2.3,0,1,0-2.3,2.3,2.238,2.238,0,0,0,1.4-.48,0.4,0.4,0,0,0,.074-0.57,0.419,0.419,0,0,0-.576-0.08,1.414,1.414,0,0,1-.9.31A1.475,1.475,0,1,1,58.295,1498.82Zm-6.8-7.83a2.5,2.5,0,1,0-2.5,2.5A2.5,2.5,0,0,0,51.491,1490.99Zm-4.181,0a1.68,1.68,0,1,1,1.68,1.68A1.68,1.68,0,0,1,47.309,1490.99Z" transform="translate(-39 -1481)"/>
</svg>
